<svg xmlns="http://www.w3.org/2000/svg" viewBox="0 0 1600 900" role="img" aria-labelledby="title desc">
  <title id="title">Smart hotel check-in concept illustration</title>
  <desc id="desc">A warm hotel lobby with a self check-in kiosk, smartphone digital key, and room access indicator.</desc>
  <defs>
    <linearGradient id="wall" x1="0" x2="1" y1="0" y2="1">
      <stop offset="0" stop-color="#fff7ec"/>
      <stop offset="0.52" stop-color="#ead8c0"/>
      <stop offset="1" stop-color="#c6a987"/>
    </linearGradient>
    <linearGradient id="floor" x1="0" x2="1" y1="0" y2="0">
      <stop offset="0" stop-color="#f6eadc"/>
      <stop offset="1" stop-color="#d0b28f"/>
    </linearGradient>
    <linearGradient id="night" x1="0" x2="1">
      <stop offset="0" stop-color="#2c211d"/>
      <stop offset="1" stop-color="#5a3d2d"/>
    </linearGradient>
    <linearGradient id="teal" x1="0" x2="1" y1="0" y2="1">
      <stop offset="0" stop-color="#7bc6bd"/>
      <stop offset="1" stop-color="#2f7f78"/>
    </linearGradient>
    <filter id="softShadow" x="-20%" y="-20%" width="140%" height="140%">
      <feDropShadow dx="0" dy="18" stdDeviation="18" flood-color="#4a3426" flood-opacity="0.2"/>
    </filter>
  </defs>

  <rect width="1600" height="900" fill="url(#wall)"/>
  <rect y="628" width="1600" height="272" fill="url(#floor)"/>
  <path d="M0 620h1600" stroke="#fff7ec" stroke-width="10" opacity="0.55"/>

  <g opacity="0.22">
    <circle cx="240" cy="180" r="120" fill="#fffaf3"/>
    <circle cx="1380" cy="165" r="160" fill="#fffaf3"/>
    <path d="M122 690c170-92 305-130 458-108 170 25 287 128 462 116 150-10 271-98 436-67" fill="none" stroke="#8a6a52" stroke-width="5"/>
  </g>

  <g transform="translate(82 124)" filter="url(#softShadow)">
    <rect x="0" y="0" width="380" height="500" rx="18" fill="url(#night)"/>
    <rect x="38" y="38" width="304" height="72" rx="12" fill="#d5ad79" opacity="0.9"/>
    <rect x="38" y="138" width="304" height="320" rx="16" fill="#211815" opacity="0.78"/>
    <g stroke="#9b7456" stroke-width="10" opacity="0.6">
      <path d="M96 152v290"/>
      <path d="M156 152v290"/>
      <path d="M216 152v290"/>
      <path d="M276 152v290"/>
    </g>
    <circle cx="88" cy="73" r="20" fill="#fff4df"/>
    <rect x="128" y="58" width="176" height="30" rx="15" fill="#fff4df" opacity="0.82"/>
  </g>

  <g transform="translate(520 245)" filter="url(#softShadow)">
    <path d="M54 52c0-28 23-52 52-52h166c29 0 52 24 52 52v442H54z" fill="#f2e4d1"/>
    <path d="M80 84c0-18 15-33 33-33h152c18 0 33 15 33 33v198H80z" fill="#2b2421"/>
    <rect x="110" y="112" width="128" height="16" rx="8" fill="#74b8ae"/>
    <rect x="110" y="158" width="156" height="18" rx="9" fill="#fff7ec" opacity="0.78"/>
    <rect x="110" y="204" width="112" height="18" rx="9" fill="#fff7ec" opacity="0.58"/>
    <rect x="112" y="330" width="154" height="42" rx="21" fill="url(#teal)"/>
    <rect x="136" y="400" width="106" height="14" rx="7" fill="#b59676"/>
    <rect x="104" y="444" width="170" height="22" rx="11" fill="#d2b38e"/>
  </g>

  <g transform="translate(990 170)" filter="url(#softShadow)">
    <rect x="180" y="0" width="230" height="530" rx="24" fill="#412d23"/>
    <rect x="205" y="34" width="180" height="462" rx="18" fill="#72503b"/>
    <rect x="260" y="130" width="70" height="248" rx="35" fill="#f4e1c8" opacity="0.16"/>
    <circle cx="295" cy="232" r="54" fill="#25322d"/>
    <circle cx="295" cy="232" r="37" fill="none" stroke="#87d6bf" stroke-width="10"/>
    <circle cx="295" cy="232" r="8" fill="#bdf2df"/>
    <rect x="286" y="314" width="18" height="90" rx="9" fill="#d5ad79"/>
    <rect x="294" y="392" width="54" height="20" rx="10" fill="#d5ad79"/>
  </g>

  <g transform="translate(830 266)">
    <path d="M160 122c48 0 88 40 88 88v218H72V210c0-48 39-88 88-88z" fill="#f6eadc"/>
    <path d="M100 442h44v142c0 20-16 36-36 36H98c-20 0-36-16-36-36V480c0-21 17-38 38-38z" fill="#594033"/>
    <path d="M180 442h44c21 0 38 17 38 38v104c0 20-16 36-36 36h-10c-20 0-36-16-36-36z" fill="#594033"/>
    <circle cx="160" cy="74" r="58" fill="#b98a67"/>
    <path d="M112 62c28-58 110-46 126 11 9 32-4 70-37 87-36-34-71-61-89-98z" fill="#3a2a25"/>
    <path d="M72 232c-42 44-74 98-94 162" fill="none" stroke="#f6eadc" stroke-width="38" stroke-linecap="round"/>
    <path d="M244 228c47 39 88 85 124 139" fill="none" stroke="#f6eadc" stroke-width="38" stroke-linecap="round"/>
    <g transform="translate(348 196) rotate(-12)">
      <rect width="82" height="150" rx="18" fill="#20252a"/>
      <rect x="9" y="16" width="64" height="106" rx="10" fill="#2e897f"/>
      <circle cx="41" cy="134" r="7" fill="#f7ead9"/>
      <path d="M25 70h32M41 54v32" stroke="#d6fff3" stroke-width="8" stroke-linecap="round"/>
    </g>
  </g>

  <g transform="translate(735 700)">
    <rect x="0" y="0" width="170" height="92" rx="26" fill="#3d3029"/>
    <rect x="24" y="-74" width="122" height="112" rx="18" fill="#5b4438"/>
    <path d="M50-76c0-42 70-42 70 0" fill="none" stroke="#5b4438" stroke-width="20" stroke-linecap="round"/>
    <g stroke="#826957" stroke-width="7" opacity="0.65">
      <path d="M44-54v136"/>
      <path d="M84-54v136"/>
      <path d="M124-54v136"/>
    </g>
    <circle cx="42" cy="104" r="13" fill="#2c211d"/>
    <circle cx="128" cy="104" r="13" fill="#2c211d"/>
  </g>

  <g transform="translate(104 742)">
    <rect x="0" y="0" width="485" height="78" rx="39" fill="#fff7ec" opacity="0.82"/>
    <circle cx="56" cy="39" r="22" fill="#c66133"/>
    <rect x="98" y="24" width="242" height="15" rx="8" fill="#4d3b33" opacity="0.76"/>
    <rect x="98" y="50" width="326" height="10" rx="5" fill="#8c7464" opacity="0.54"/>
  </g>
</svg>
