<svg xmlns="http://www.w3.org/2000/svg" viewBox="0 0 1600 900" role="img" aria-labelledby="title desc">
  <title id="title">AI search brand visibility concept</title>
  <desc id="desc">An editorial concept image showing AI search connecting a hotel, a fashion brand, reviews, maps, and source cards.</desc>
  <defs>
    <linearGradient id="bg" x1="0" x2="1" y1="0" y2="1">
      <stop offset="0" stop-color="#fff7ed"/>
      <stop offset="0.5" stop-color="#ead9c5"/>
      <stop offset="1" stop-color="#c2d8d1"/>
    </linearGradient>
    <linearGradient id="ink" x1="0" x2="1">
      <stop offset="0" stop-color="#2a211d"/>
      <stop offset="1" stop-color="#55392c"/>
    </linearGradient>
    <linearGradient id="green" x1="0" x2="1">
      <stop offset="0" stop-color="#7bb9a9"/>
      <stop offset="1" stop-color="#2f756e"/>
    </linearGradient>
    <filter id="shadow" x="-18%" y="-18%" width="136%" height="136%">
      <feDropShadow dx="0" dy="20" stdDeviation="20" flood-color="#442f24" flood-opacity="0.18"/>
    </filter>
  </defs>

  <rect width="1600" height="900" fill="url(#bg)"/>
  <g opacity="0.24">
    <circle cx="260" cy="170" r="142" fill="#fffaf4"/>
    <circle cx="1320" cy="184" r="178" fill="#fffaf4"/>
    <path d="M110 670c180-110 312-120 455-54 157 72 276 72 438-12 177-92 312-84 486 18" fill="none" stroke="#806452" stroke-width="6"/>
  </g>

  <g transform="translate(438 142)" filter="url(#shadow)">
    <rect width="724" height="520" rx="42" fill="#fffaf3" opacity="0.94"/>
    <rect x="48" y="42" width="628" height="76" rx="38" fill="#f1dfc8"/>
    <circle cx="95" cy="80" r="18" fill="#c76235"/>
    <rect x="132" y="67" width="392" height="18" rx="9" fill="#4d3b34" opacity="0.72"/>
    <rect x="132" y="96" width="250" height="10" rx="5" fill="#8e7564" opacity="0.46"/>

    <g transform="translate(70 160)">
      <rect width="270" height="250" rx="24" fill="#2d211d"/>
      <rect x="34" y="40" width="202" height="118" rx="16" fill="#654836"/>
      <path d="M66 158h136v92H66z" fill="#f6e7d5"/>
      <path d="M84 158v-44c0-34 28-62 62-62s62 28 62 62v44" fill="none" stroke="#f6e7d5" stroke-width="18"/>
      <circle cx="135" cy="202" r="16" fill="#7bb9a9"/>
    </g>

    <g transform="translate(384 154)">
      <rect width="270" height="116" rx="24" fill="#e9d4bb"/>
      <rect x="32" y="32" width="88" height="16" rx="8" fill="#392b25" opacity="0.72"/>
      <rect x="32" y="64" width="180" height="12" rx="6" fill="#846a59" opacity="0.56"/>
      <circle cx="222" cy="58" r="28" fill="#c76235"/>
    </g>

    <g transform="translate(384 298)">
      <rect width="270" height="116" rx="24" fill="#dce8df"/>
      <rect x="32" y="32" width="150" height="16" rx="8" fill="#392b25" opacity="0.72"/>
      <rect x="32" y="64" width="190" height="12" rx="6" fill="#5f7b72" opacity="0.56"/>
      <path d="M210 72l26-28 26 28" fill="none" stroke="#2f756e" stroke-width="12" stroke-linecap="round" stroke-linejoin="round"/>
    </g>
  </g>

  <g transform="translate(175 250)" filter="url(#shadow)">
    <rect width="270" height="330" rx="32" fill="url(#ink)"/>
    <rect x="38" y="42" width="194" height="126" rx="22" fill="#f3e3d1" opacity="0.9"/>
    <path d="M70 168h130v98H70z" fill="#7bb9a9"/>
    <path d="M88 168v-40c0-32 26-58 58-58s58 26 58 58v40" fill="none" stroke="#7bb9a9" stroke-width="16"/>
    <rect x="48" y="236" width="174" height="16" rx="8" fill="#f3e3d1" opacity="0.82"/>
    <rect x="48" y="270" width="128" height="12" rx="6" fill="#f3e3d1" opacity="0.54"/>
  </g>

  <g transform="translate(1175 252)" filter="url(#shadow)">
    <rect width="250" height="330" rx="32" fill="#fffaf3"/>
    <circle cx="125" cy="86" r="46" fill="#c76235"/>
    <path d="M86 222c20-60 58-90 115-118" fill="none" stroke="#2f756e" stroke-width="18" stroke-linecap="round"/>
    <path d="M76 244c38 24 80 36 126 35" fill="none" stroke="#d3b08c" stroke-width="18" stroke-linecap="round"/>
    <rect x="54" y="168" width="142" height="18" rx="9" fill="#382a25" opacity="0.72"/>
    <rect x="54" y="302" width="110" height="12" rx="6" fill="#8f7461" opacity="0.56"/>
  </g>

  <g stroke="#2f756e" stroke-width="8" stroke-linecap="round" fill="none" opacity="0.65">
    <path d="M445 384c80-54 153-80 226-78"/>
    <path d="M1162 392c-94-52-180-74-258-66"/>
    <path d="M776 662v92"/>
  </g>

  <g transform="translate(520 718)" filter="url(#shadow)">
    <rect width="560" height="92" rx="46" fill="#fffaf3" opacity="0.95"/>
    <circle cx="60" cy="46" r="24" fill="url(#green)"/>
    <rect x="104" y="30" width="230" height="15" rx="8" fill="#3b2d27" opacity="0.72"/>
    <rect x="104" y="57" width="340" height="10" rx="5" fill="#8b7362" opacity="0.48"/>
    <circle cx="494" cy="46" r="22" fill="#c76235"/>
  </g>
</svg>
