<svg xmlns="http://www.w3.org/2000/svg" viewBox="0 0 1200 675" role="img" aria-labelledby="title desc">
  <title id="title">Pre-arrival hotel check-in</title>
  <desc id="desc">A traveler completes online check-in before arriving at a hotel.</desc>
  <defs>
    <linearGradient id="bg" x1="0" x2="1" y1="0" y2="1"><stop offset="0" stop-color="#fff7ed"/><stop offset="1" stop-color="#d8e4dd"/></linearGradient>
    <filter id="s" x="-20%" y="-20%" width="140%" height="140%"><feDropShadow dx="0" dy="18" stdDeviation="18" flood-color="#493225" flood-opacity=".16"/></filter>
  </defs>
  <rect width="1200" height="675" fill="url(#bg)"/>
  <circle cx="1040" cy="120" r="96" fill="#fffaf3" opacity=".55"/>
  <g filter="url(#s)">
    <rect x="180" y="132" width="470" height="360" rx="34" fill="#fffaf3"/>
    <rect x="224" y="184" width="382" height="52" rx="26" fill="#ead7bf"/>
    <circle cx="260" cy="210" r="14" fill="#c76235"/>
    <rect x="288" y="200" width="230" height="12" rx="6" fill="#4a3931" opacity=".68"/>
    <rect x="236" y="282" width="170" height="24" rx="12" fill="#2f756e"/>
    <rect x="236" y="336" width="300" height="16" rx="8" fill="#8f7765" opacity=".55"/>
    <rect x="236" y="376" width="248" height="16" rx="8" fill="#8f7765" opacity=".38"/>
    <rect x="236" y="424" width="178" height="42" rx="21" fill="#c76235"/>
  </g>
  <g transform="translate(705 155)" filter="url(#s)">
    <rect width="210" height="355" rx="34" fill="#2b211d"/>
    <rect x="24" y="34" width="162" height="230" rx="22" fill="#f1dfca"/>
    <rect x="52" y="74" width="104" height="14" rx="7" fill="#4a3931"/>
    <rect x="52" y="118" width="104" height="14" rx="7" fill="#82b7a9"/>
    <path d="M62 174l32 32 66-78" fill="none" stroke="#2f756e" stroke-width="16" stroke-linecap="round" stroke-linejoin="round"/>
    <circle cx="105" cy="304" r="12" fill="#fff7ed"/>
  </g>
  <path d="M650 340c70-46 125-56 188-20" fill="none" stroke="#2f756e" stroke-width="8" stroke-linecap="round" opacity=".65"/>
</svg>
