<svg xmlns="http://www.w3.org/2000/svg" viewBox="0 0 1200 675" role="img" aria-labelledby="title desc">
  <title id="title">Lightweight smart arrival flow</title>
  <desc id="desc">A smooth hotel arrival journey from pre-arrival to room access and service follow-up.</desc>
  <defs>
    <linearGradient id="bg" x1="0" x2="1" y1="0" y2="1"><stop offset="0" stop-color="#fff7ed"/><stop offset="1" stop-color="#ead2b4"/></linearGradient>
    <filter id="s" x="-20%" y="-20%" width="140%" height="140%"><feDropShadow dx="0" dy="18" stdDeviation="18" flood-color="#493225" flood-opacity=".14"/></filter>
  </defs>
  <rect width="1200" height="675" fill="url(#bg)"/>
  <path d="M154 352c170-178 330-186 480-18s292 162 414-6" fill="none" stroke="#2f756e" stroke-width="12" stroke-linecap="round" opacity=".62"/>
  <g filter="url(#s)" fill="#fffaf3">
    <rect x="100" y="250" width="170" height="150" rx="28"/>
    <rect x="360" y="190" width="170" height="150" rx="28"/>
    <rect x="620" y="310" width="170" height="150" rx="28"/>
    <rect x="880" y="210" width="170" height="150" rx="28"/>
  </g>
  <g fill="#2f756e">
    <circle cx="185" cy="325" r="28"/>
    <circle cx="445" cy="265" r="28"/>
    <circle cx="705" cy="385" r="28"/>
    <circle cx="965" cy="285" r="28"/>
  </g>
  <g stroke="#fffaf3" stroke-width="10" stroke-linecap="round" fill="none">
    <path d="M171 325h28M185 311v28"/>
    <path d="M431 265h28M445 251v28"/>
    <path d="M691 385h28M705 371v28"/>
    <path d="M951 285h28M965 271v28"/>
  </g>
  <g fill="#4a3931" opacity=".74">
    <rect x="134" y="370" width="102" height="12" rx="6"/>
    <rect x="394" y="310" width="102" height="12" rx="6"/>
    <rect x="654" y="430" width="102" height="12" rx="6"/>
    <rect x="914" y="330" width="102" height="12" rx="6"/>
  </g>
</svg>
