<svg xmlns="http://www.w3.org/2000/svg" viewBox="0 0 1200 675" role="img" aria-labelledby="title desc">
  <title id="title">Mobile hotel room key</title>
  <desc id="desc">A smartphone digital key opens a hotel room door.</desc>
  <defs>
    <linearGradient id="bg" x1="0" x2="1" y1="0" y2="1"><stop offset="0" stop-color="#f8eadb"/><stop offset="1" stop-color="#c7dcd3"/></linearGradient>
    <filter id="s" x="-20%" y="-20%" width="140%" height="140%"><feDropShadow dx="0" dy="18" stdDeviation="18" flood-color="#493225" flood-opacity=".18"/></filter>
  </defs>
  <rect width="1200" height="675" fill="url(#bg)"/>
  <g transform="translate(690 88)" filter="url(#s)">
    <rect width="300" height="492" rx="28" fill="#38271f"/>
    <rect x="34" y="40" width="232" height="410" rx="20" fill="#74533d"/>
    <circle cx="150" cy="220" r="72" fill="#1f302b"/>
    <circle cx="150" cy="220" r="48" fill="none" stroke="#8bd2bf" stroke-width="14"/>
    <rect x="140" y="315" width="20" height="92" rx="10" fill="#d5ad79"/>
    <rect x="150" y="390" width="76" height="24" rx="12" fill="#d5ad79"/>
  </g>
  <g transform="translate(276 150) rotate(-8)" filter="url(#s)">
    <rect width="230" height="390" rx="38" fill="#211815"/>
    <rect x="25" y="44" width="180" height="260" rx="24" fill="#2f756e"/>
    <circle cx="115" cy="335" r="13" fill="#fff7ed"/>
    <path d="M72 178h86M115 136v84" stroke="#e7fff5" stroke-width="18" stroke-linecap="round"/>
    <rect x="64" y="86" width="102" height="16" rx="8" fill="#e7fff5" opacity=".72"/>
  </g>
  <path d="M510 320c76-70 124-86 202-76" fill="none" stroke="#2f756e" stroke-width="10" stroke-linecap="round" opacity=".65"/>
</svg>
