<svg xmlns="http://www.w3.org/2000/svg" viewBox="0 0 1200 675" role="img" aria-labelledby="title desc">
  <title id="title">Hotel systems integration</title>
  <desc id="desc">Hotel PMS, lock, payment, room service, and CRM systems connect into one flow.</desc>
  <defs>
    <linearGradient id="bg" x1="0" x2="1" y1="0" y2="1"><stop offset="0" stop-color="#f8eadb"/><stop offset="1" stop-color="#d7e7df"/></linearGradient>
    <filter id="s" x="-20%" y="-20%" width="140%" height="140%"><feDropShadow dx="0" dy="18" stdDeviation="18" flood-color="#493225" flood-opacity=".14"/></filter>
  </defs>
  <rect width="1200" height="675" fill="url(#bg)"/>
  <g stroke="#2f756e" stroke-width="8" stroke-linecap="round" opacity=".58">
    <path d="M600 334H310M600 334h290M600 334V170M600 334v164"/>
  </g>
  <g filter="url(#s)">
    <rect x="456" y="230" width="288" height="210" rx="34" fill="#2b211d"/>
    <circle cx="600" cy="314" r="54" fill="#7bb9a9"/>
    <path d="M575 314h50M600 289v50" stroke="#eafff5" stroke-width="12" stroke-linecap="round"/>
    <rect x="520" y="386" width="160" height="14" rx="7" fill="#f4e5d2" opacity=".7"/>
  </g>
  <g fill="#fffaf3" filter="url(#s)">
    <rect x="150" y="264" width="190" height="140" rx="24"/>
    <rect x="860" y="264" width="190" height="140" rx="24"/>
    <rect x="505" y="70" width="190" height="140" rx="24"/>
    <rect x="505" y="466" width="190" height="140" rx="24"/>
  </g>
  <g fill="#4a3931" opacity=".75">
    <rect x="196" y="314" width="92" height="14" rx="7"/>
    <rect x="906" y="314" width="92" height="14" rx="7"/>
    <rect x="551" y="120" width="92" height="14" rx="7"/>
    <rect x="551" y="516" width="92" height="14" rx="7"/>
  </g>
  <g fill="#c76235">
    <circle cx="245" cy="356" r="18"/>
    <circle cx="955" cy="356" r="18"/>
    <circle cx="600" cy="162" r="18"/>
    <circle cx="600" cy="558" r="18"/>
  </g>
</svg>
