<svg xmlns="http://www.w3.org/2000/svg" viewBox="0 0 1200 675" role="img" aria-labelledby="title desc">
  <title id="title">Hotel front desk service node</title>
  <desc id="desc">A hotel staff member uses a tablet while a traveler checks in.</desc>
  <defs>
    <linearGradient id="bg" x1="0" x2="1" y1="0" y2="1"><stop offset="0" stop-color="#fff7ed"/><stop offset="1" stop-color="#ead3b9"/></linearGradient>
    <filter id="s" x="-20%" y="-20%" width="140%" height="140%"><feDropShadow dx="0" dy="18" stdDeviation="18" flood-color="#493225" flood-opacity=".16"/></filter>
  </defs>
  <rect width="1200" height="675" fill="url(#bg)"/>
  <rect y="468" width="1200" height="207" fill="#d8bea0"/>
  <g filter="url(#s)">
    <rect x="226" y="316" width="748" height="152" rx="30" fill="#3a2a25"/>
    <rect x="285" y="260" width="210" height="76" rx="22" fill="#f3dfc7"/>
    <rect x="690" y="248" width="216" height="88" rx="22" fill="#f3dfc7"/>
  </g>
  <g transform="translate(340 166)">
    <circle cx="64" cy="52" r="48" fill="#b98a67"/>
    <path d="M22 52c16-58 96-58 116 0" fill="#32241f"/>
    <rect x="8" y="108" width="112" height="190" rx="42" fill="#6d805a"/>
    <path d="M4 142c-44 32-72 74-88 126" stroke="#6d805a" stroke-width="28" stroke-linecap="round" fill="none"/>
  </g>
  <g transform="translate(735 158)">
    <circle cx="62" cy="52" r="48" fill="#b98a67"/>
    <rect x="8" y="108" width="108" height="190" rx="42" fill="#c76235"/>
    <rect x="-50" y="172" width="116" height="84" rx="16" fill="#2f756e" transform="rotate(-7)"/>
    <rect x="-25" y="204" width="64" height="10" rx="5" fill="#e7fff5"/>
  </g>
</svg>
